# xmcd CD database file
#
# Track frame offsets:
#	150
#	13617
#	31167
#	41433
#	52025
#	60249
#	66607
#	69868
#	76344
#	82458
#	92369
#	108913
#	116395
#	124282
#	132272
#	143511
#	151293
#	160974
#	166828
#	203395
#	222968
#	233709
#	242097
#	253208
#	261981
#	270662
#	279754
#	303535
#	319662
#	331566
#	336414
#
# Disc length: 4655 seconds
#
# Revision: 0
# Processed by: cddbd v1.5.2PL0 Copyright (c) Steve Scherf et al.
# Submitted via: CDex 1.70beta3
#
DISCID=ab122d1f
DTITLE=Gershon Kingsley - Voices from the Shadow
DYEAR=2005
DGENRE=New Age
TTITLE0=Ver zenen mir?
TTITLE1=Eyner aleyn
TTITLE2=Come to Me
TTITLE3=Bombardiers
TTITLE4=My number is 434
TTITLE5=Ich möchte gerne...
TTITLE6=Three Vignettes for Children: 1. Kindermärchen
TTITLE7=Three Vignettes for Children: 1. Theresienstädter Kinderreim
TTITLE8=Three Vignettes for Children: 1. Ein Brot
TTITLE9=The Butterfly
TTITLE10=Shlof mayn kind
TTITLE11=Jeu d'enfant
TTITLE12=Na swojska nute
TTITLE13=Di eybike trep
TTITLE14=Segen der Nacht
TTITLE15=Shpalt zikh Himl!
TTITLE16=Máj 1945
TTITLE17=Finale (Ver zenen mir-reprise)
TTITLE18=Hashkivenu
TTITLE19=Yism'hu
TTITLE20=Bar'khu
TTITLE21=Sh'ma yisra'el
TTITLE22=Mi khamokha
TTITLE23=V'sham'ru
TTITLE24=May the Words of my Mouth
TTITLE25=S'u sh'arim
TTITLE26=L'kha dodi
TTITLE27=Hashkivenu
TTITLE28=Silent Devotion and Yih'yu I'ratzon
TTITLE29=Vay'khullu
TTITLE30=Kiddush
EXTD=YEAR: 2005
EXTT0=
EXTT1=
EXTT2=
EXTT3=
EXTT4=
EXTT5=
EXTT6=
EXTT7=
EXTT8=
EXTT9=
EXTT10=
EXTT11=
EXTT12=
EXTT13=
EXTT14=
EXTT15=
EXTT16=
EXTT17=
EXTT18=
EXTT19=
EXTT20=
EXTT21=
EXTT22=
EXTT23=
EXTT24=
EXTT25=
EXTT26=
EXTT27=
EXTT28=
EXTT29=
EXTT30=
PLAYORDER=
